<svg width="146" height="32" viewBox="0 0 146 32" fill="none" xmlns="http://www.w3.org/2000/svg">
<g clip-path="url(#clip0_1648_715)">
<path fill-rule="evenodd" clip-rule="evenodd" d="M12.8698 3.05176e-05H8.6084L16.8844 23.04H21.1458L12.8698 3.05176e-05ZM105.126 18.0224V7.74723H109.579V4.61523H105.128V3.05176e-05H101.309V4.61523H99.1504V7.74723H101.307V18.0232C101.308 19.8408 101.762 21.1539 102.669 21.9624C103.575 22.771 104.881 23.1752 106.586 23.1752H109.576V19.9752H107.251C106.476 19.9779 105.928 19.8264 105.607 19.5208C105.286 19.2152 105.126 18.7158 105.126 18.0224ZM45.6122 5.18996C46.7196 4.6033 47.9705 4.30996 49.3649 4.30996C50.9017 4.29556 52.4126 4.71074 53.732 5.50996C55.0502 6.3057 56.085 7.42223 56.8364 8.85956C57.5878 10.2969 57.9643 11.9481 57.9659 13.8132C57.9659 15.6756 57.5894 17.3428 56.8364 18.8148C56.0835 20.2868 55.0487 21.431 53.732 22.2476C52.4201 23.068 50.9061 23.4952 49.3649 23.4796C47.9713 23.4796 46.7306 23.19 45.6461 22.6196C44.5617 22.0492 43.6743 21.3348 42.989 20.4788V31.9996H39.2031V4.61476H42.989V7.34516C43.632 6.48916 44.5064 5.77076 45.6122 5.18996ZM53.3337 10.4924C52.8137 9.56116 52.1275 8.85396 51.2752 8.37076C50.4389 7.89317 49.4949 7.64346 48.5352 7.64596C47.5854 7.6462 46.6528 7.90271 45.8331 8.38916C44.9797 8.8809 44.2935 9.59956 43.7745 10.5452C43.2555 11.4908 42.995 12.6022 42.9929 13.8796C42.9929 15.1596 43.254 16.2756 43.7745 17.2292C44.2951 18.1828 44.9797 18.9092 45.8331 19.4004C46.6596 19.8889 47.5996 20.145 48.5562 20.1424C49.5128 20.1397 50.4513 19.8783 51.2752 19.3852C52.127 18.878 52.814 18.146 53.3337 17.1804C53.8535 16.2148 54.1153 15.0892 54.1153 13.8124C54.1153 12.5356 53.8543 11.4236 53.3337 10.4924ZM25.9997 22.6858C24.8593 22.1599 23.9572 21.4415 23.2937 20.5306C22.6391 19.6488 22.2679 18.5841 22.2305 17.481H26.1496C26.2166 18.2698 26.5865 18.921 27.2625 19.4522C27.9384 19.9834 28.7839 20.245 29.8021 20.245C30.8645 20.245 31.6887 20.0346 32.2755 19.6218C32.8623 19.209 33.1565 18.6714 33.1565 18.0218C33.1565 17.3234 32.8292 16.809 32.1769 16.4706C31.5247 16.1322 30.4891 15.765 29.071 15.3594C27.6992 14.9802 26.5815 14.6095 25.7182 14.2474C24.8517 13.8875 24.083 13.3221 23.4766 12.5986C22.8457 11.8551 22.5302 10.8775 22.5302 9.66578C22.5256 8.69199 22.8276 7.74215 23.3922 6.95458C23.968 6.13538 24.7925 5.49058 25.8657 5.02018C26.9388 4.54978 28.1745 4.31324 29.5726 4.31058C31.6517 4.31058 33.3282 4.84391 34.6022 5.91058C35.8763 6.97724 36.5569 8.43191 36.6442 10.2746H32.8584C32.7937 9.44418 32.4601 8.77938 31.8622 8.28738C31.2644 7.79538 30.4576 7.54418 29.4393 7.54418C28.4429 7.54418 27.6789 7.73564 27.1473 8.11858C26.6157 8.50178 26.3515 9.00498 26.3515 9.63218C26.3462 9.86642 26.3908 10.0991 26.4821 10.3143C26.5734 10.5295 26.7094 10.7222 26.8807 10.8794C27.255 11.2295 27.6953 11.4992 28.175 11.6722C28.6835 11.8636 29.4362 12.1052 30.4331 12.397C31.7608 12.757 32.8513 13.1212 33.7047 13.4898C34.5528 13.8586 35.3077 14.417 35.9131 15.1234C36.5314 15.8439 36.8524 16.7991 36.8761 17.989C36.8887 19 36.5868 19.9892 36.0133 20.8162C35.4351 21.6466 34.6227 22.3002 33.5682 22.769C32.5137 23.2378 31.281 23.4794 29.866 23.4794C28.429 23.4786 27.141 23.2114 25.9997 22.6858ZM63.8063 15.3256H77.7863C77.8786 14.7013 77.9219 14.0705 77.9156 13.4392C77.9167 11.6435 77.5404 10.055 76.787 8.67362C76.0592 7.31783 74.9646 6.2012 73.6321 5.45522C72.2802 4.69149 70.742 4.30962 69.0173 4.30962C67.2233 4.31069 65.6348 4.70375 64.2519 5.48882C62.8789 6.26436 61.7593 7.43001 61.0308 8.84242C60.2668 10.291 59.8848 11.9696 59.8848 13.8784C59.8848 15.7872 60.2792 17.4646 61.0679 18.9104C61.8169 20.3222 62.9446 21.4902 64.3205 22.2792C65.705 23.0792 67.2719 23.4792 69.0213 23.4792C71.1666 23.4787 72.9654 22.9342 74.4177 21.8456C75.832 20.8054 76.8839 19.3363 77.4219 17.6504H73.3379C72.4966 19.3806 71.0577 20.2456 69.0213 20.2456C67.6032 20.2446 66.4072 19.7952 65.4334 18.8976C64.4596 18 63.9172 16.8094 63.8063 15.3256ZM72.4735 8.82562C73.4473 9.67789 73.9452 10.812 73.9673 12.228L63.8434 12.2288C64.0185 10.7942 64.5706 9.65495 65.4997 8.81122C66.4288 7.96749 67.5469 7.54562 68.8541 7.54562C70.2932 7.54669 71.4997 7.97335 72.4735 8.82562ZM81.1909 8.84435C81.9103 7.44202 83.0109 6.27821 84.3623 5.49075C85.7115 4.70569 87.2611 4.31262 89.0109 4.31155C91.2246 4.31155 93.0565 4.84489 94.5067 5.91155C95.9569 6.97822 96.9362 8.50115 97.4447 10.4804H93.3607C93.0294 9.56035 92.4931 8.83955 91.7675 8.32515C91.0419 7.81075 90.1175 7.54755 89.007 7.54755C87.4569 7.54755 86.2213 8.10329 85.3001 9.21475C84.3788 10.3262 83.9214 11.8814 83.9277 13.8804C83.9277 15.8804 84.3878 17.4404 85.3079 18.5604C86.2281 19.6804 87.4638 20.2425 89.0149 20.2468C91.2065 20.2468 92.6564 19.2692 93.3647 17.314H97.4486C96.9176 19.2025 95.9217 20.702 94.461 21.8124C93.0003 22.9228 91.1862 23.4788 89.0188 23.4804C87.2695 23.4804 85.7199 23.0804 84.3702 22.2804C83.0196 21.4851 81.9197 20.3167 81.1987 18.9116C80.4342 17.4657 80.0522 15.7884 80.0527 13.8796C80.0533 11.9708 80.4326 10.2924 81.1909 8.84435ZM129.111 4.61526V23.1753H125.326V20.9857C124.728 21.7478 123.947 22.3486 122.984 22.7881C122.017 23.2252 120.971 23.449 119.913 23.4449C118.472 23.4449 117.183 23.1419 116.043 22.5361C114.902 21.9288 113.966 20.9901 113.354 19.8401C112.7 18.6497 112.373 17.2126 112.374 15.5289V4.61526H116.127V14.9601C116.127 16.6203 116.536 17.8947 117.354 18.7833C118.172 19.6718 119.29 20.115 120.708 20.1129C122.125 20.1129 123.249 19.6697 124.079 18.7833C124.91 17.8969 125.326 16.6225 125.328 14.9601V4.61526H129.111ZM132.417 20.5306C133.081 21.4415 133.983 22.1599 135.124 22.6858C136.263 23.2114 137.552 23.4786 138.986 23.4786C140.401 23.4786 141.633 23.237 142.688 22.7682C143.744 22.2994 144.556 21.6458 145.133 20.8154C145.707 19.9887 146.009 18.9992 145.996 17.9882C145.973 16.7983 145.652 15.8431 145.033 15.1226C144.428 14.4162 143.673 13.8578 142.825 13.489C141.972 13.1204 140.882 12.7562 139.554 12.3962C138.558 12.1044 137.805 11.8628 137.295 11.6714C136.816 11.4984 136.376 11.2287 136.002 10.8786C135.83 10.7218 135.693 10.5293 135.602 10.3142C135.51 10.0991 135.465 9.86649 135.47 9.63218C135.47 9.00498 135.735 8.50178 136.266 8.11858C136.797 7.73564 137.561 7.54418 138.558 7.54418C139.576 7.54418 140.381 7.79538 140.982 8.28738C141.583 8.77938 141.912 9.44418 141.977 10.2746H145.763C145.677 8.43191 144.997 6.97724 143.723 5.91058C142.449 4.84391 140.773 4.31058 138.693 4.31058C137.295 4.31324 136.06 4.54978 134.987 5.02018C133.913 5.49058 133.089 6.13538 132.513 6.95458C131.948 7.74208 131.646 8.69191 131.65 9.66578C131.65 10.8775 131.966 11.8551 132.597 12.5986C133.204 13.322 133.972 13.8873 134.839 14.2474C135.702 14.6095 136.82 14.9802 138.191 15.3594C139.611 15.765 140.649 16.1322 141.3 16.4706C141.952 16.809 142.28 17.3234 142.28 18.0218C142.28 18.6714 141.985 19.209 141.398 19.6218C140.811 20.0346 139.988 20.245 138.925 20.245C137.907 20.245 137.06 19.9834 136.385 19.4522C135.71 18.921 135.339 18.2698 135.273 17.481H131.354C131.391 18.5841 131.762 19.6489 132.417 20.5306ZM4.58564 23.0396H0.324219L3.5051 14.1836H7.76653L4.58564 23.0396Z" fill="#022C2E"/>
</g>
<defs>
<clipPath id="clip0_1648_715">
<rect width="146" height="32" fill="white"/>
</clipPath>
</defs>
</svg>
