<svg width="146" height="32" viewBox="0 0 146 32" fill="none" xmlns="http://www.w3.org/2000/svg">
<g clip-path="url(#clip0_1648_3391)">
<path fill-rule="evenodd" clip-rule="evenodd" d="M12.8701 0H8.60864L16.8846 23.04H21.146L12.8701 0ZM105.126 18.0224V7.7472H109.579V4.6152H105.128V0H101.309V4.6152H99.1506V7.7472H101.307V18.0232C101.309 19.8408 101.763 21.1539 102.669 21.9624C103.576 22.7709 104.881 23.1752 106.587 23.1752H109.577V19.9752H107.252C106.476 19.9779 105.928 19.8264 105.607 19.5208C105.286 19.2152 105.126 18.7157 105.126 18.0224ZM63.8065 15.3256H77.7865C77.8788 14.7013 77.9221 14.0705 77.9159 13.4392C77.9169 11.6435 77.5407 10.0549 76.7872 8.67359C76.0594 7.3178 74.9648 6.20117 73.6323 5.45519C72.2805 4.69146 70.7422 4.30959 69.0176 4.30959C67.2235 4.31066 65.635 4.70372 64.2522 5.48879C62.8792 6.26433 61.7596 7.42998 61.031 8.84239C60.267 10.2909 59.885 11.9696 59.885 13.8784C59.885 15.7872 60.2794 17.4645 61.0681 18.9104C61.8172 20.3222 62.9448 21.4901 64.3208 22.2792C65.7052 23.0792 67.2721 23.4792 69.0215 23.4792C71.1668 23.4787 72.9656 22.9341 74.4179 21.8456C75.8322 20.8053 76.8842 19.3363 77.4221 17.6504H73.3382C72.4969 19.3805 71.058 20.2456 69.0215 20.2456C67.6034 20.2445 66.4075 19.7952 65.4337 18.8976C64.4599 18 63.9175 16.8093 63.8065 15.3256ZM72.4737 8.82559C73.4475 9.67786 73.9455 10.812 73.9675 12.228L63.8436 12.2288C64.0187 10.7941 64.5708 9.65492 65.4999 8.81119C66.429 7.96746 67.5471 7.54559 68.8543 7.54559C70.2934 7.54666 71.4999 7.97332 72.4737 8.82559ZM45.6125 5.19039C46.7198 4.60372 47.9707 4.31039 49.3652 4.31039C50.9019 4.29598 52.4129 4.71117 53.7323 5.51039C55.0505 6.30612 56.0853 7.42266 56.8367 8.85999C57.588 10.2973 57.9645 11.9485 57.9661 13.8136C57.9661 15.676 57.5896 17.3432 56.8367 18.8152C56.0837 20.2872 55.0489 21.4315 53.7323 22.248C52.4204 23.0685 50.9063 23.4956 49.3652 23.48C47.9715 23.48 46.7309 23.1904 45.6464 22.62C44.5619 22.0496 43.6746 21.3352 42.9892 20.4792V32H39.2034V4.61519H42.9892V7.34559C43.6323 6.48959 44.5067 5.77119 45.6125 5.19039ZM53.334 10.4928C52.814 9.56159 52.1278 8.85439 51.2754 8.37119C50.4392 7.8936 49.4952 7.64389 48.5354 7.64639C47.5857 7.64663 46.6531 7.90313 45.8333 8.38959C44.9799 8.88132 44.2937 9.59999 43.7748 10.5456C43.2558 11.4912 42.9953 12.6027 42.9931 13.88C42.9931 15.16 43.2542 16.276 43.7748 17.2296C44.2953 18.1832 44.9799 18.9096 45.8333 19.4008C46.6598 19.8893 47.5998 20.1455 48.5564 20.1428C49.513 20.1401 50.4516 19.8787 51.2754 19.3856C52.1273 18.8784 52.8142 18.1464 53.334 17.1808C53.8537 16.2152 54.1156 15.0896 54.1156 13.8128C54.1156 12.536 53.8545 11.424 53.334 10.4928ZM26 22.6862C24.8595 22.1604 23.9575 21.442 23.2939 20.531C22.6393 19.6493 22.2681 18.5846 22.2307 17.4814H26.1498C26.2169 18.2702 26.5868 18.9214 27.2627 19.4526C27.9386 19.9838 28.7841 20.2454 29.8024 20.2454C30.8648 20.2454 31.689 20.035 32.2758 19.6222C32.8626 19.2094 33.1568 18.6718 33.1568 18.0222C33.1568 17.3238 32.8295 16.8094 32.1772 16.471C31.5249 16.1326 30.4893 15.7654 29.0712 15.3598C27.6994 14.9806 26.5818 14.61 25.7184 14.2478C24.852 13.888 24.0833 13.3226 23.4769 12.599C22.8459 11.8556 22.5304 10.878 22.5304 9.66623C22.5258 8.69245 22.8279 7.74261 23.3925 6.95503C23.9682 6.13583 24.7927 5.49103 25.8659 5.02063C26.9391 4.55023 28.1747 4.3137 29.5729 4.31104C31.6519 4.31104 33.3284 4.84437 34.6025 5.91104C35.8765 6.9777 36.5572 8.43237 36.6445 10.275H32.8586C32.794 9.44463 32.4603 8.77983 31.8625 8.28784C31.2646 7.79583 30.4578 7.54463 29.4396 7.54463C28.4432 7.54463 27.6792 7.7361 27.1476 8.11903C26.616 8.50223 26.3517 9.00543 26.3517 9.63264C26.3465 9.86688 26.391 10.0995 26.4823 10.3147C26.5737 10.53 26.7096 10.7227 26.881 10.8798C27.2552 11.23 27.6955 11.4996 28.1753 11.6726C28.6837 11.8641 29.4364 12.1057 30.4333 12.3974C31.761 12.7574 32.8515 13.1217 33.7049 13.4902C34.553 13.859 35.308 14.4175 35.9133 15.1238C36.5317 15.8444 36.8527 16.7996 36.8764 17.9894C36.889 19.0004 36.587 19.9897 36.0135 20.8166C35.4354 21.647 34.623 22.3006 33.5685 22.7694C32.514 23.2382 31.2812 23.4798 29.8663 23.4798C28.4292 23.479 27.1413 23.2118 26 22.6862ZM81.1913 8.84398C81.9108 7.44166 83.0113 6.27784 84.3627 5.49038C85.712 4.70532 87.2615 4.31225 89.0114 4.31119C91.2251 4.31119 93.057 4.84452 94.5072 5.91119C95.9574 6.97785 96.9367 8.50078 97.4452 10.48H93.3612C93.0299 9.55998 92.4936 8.83918 91.768 8.32478C91.0424 7.81038 90.118 7.54718 89.0075 7.54718C87.4574 7.54718 86.2217 8.10292 85.3005 9.21438C84.3793 10.3259 83.9219 11.8811 83.9282 13.88C83.9282 15.88 84.3882 17.44 85.3084 18.56C86.2286 19.68 87.4642 20.2421 89.0154 20.2464C91.2069 20.2464 92.6569 19.2688 93.3651 17.3136H97.4491C96.918 19.2021 95.9221 20.7016 94.4614 21.812C93.0007 22.9224 91.1867 23.4784 89.0193 23.48C87.27 23.48 85.7204 23.08 84.3706 22.28C83.02 21.4847 81.9201 20.3163 81.1992 18.9112C80.4347 17.4653 80.0527 15.788 80.0532 13.8792C80.0537 11.9704 80.4331 10.292 81.1913 8.84398ZM129.112 4.61523V23.1752H125.326V20.9856C124.728 21.7478 123.947 22.3486 122.984 22.788C122.018 23.2251 120.971 23.449 119.913 23.4448C118.473 23.4448 117.183 23.1419 116.043 22.536C114.902 21.9287 113.966 20.99 113.354 19.84C112.7 18.6496 112.374 17.2126 112.374 15.5288V4.61523H116.127V14.96C116.127 16.6203 116.536 17.8947 117.354 18.7832C118.172 19.6718 119.29 20.115 120.709 20.1128C122.125 20.1128 123.249 19.6696 124.08 18.7832C124.91 17.8968 125.327 16.6224 125.328 14.96V4.61523H129.112ZM132.417 20.531C133.081 21.442 133.984 22.1604 135.124 22.6862C136.264 23.2118 137.552 23.479 138.986 23.479C140.401 23.479 141.633 23.2374 142.689 22.7686C143.744 22.2998 144.556 21.6462 145.134 20.8158C145.708 19.9891 146.01 18.9997 145.996 17.9886C145.973 16.7988 145.652 15.8436 145.033 15.123C144.428 14.4167 143.673 13.8582 142.825 13.4894C141.972 13.1209 140.882 12.7566 139.554 12.3966C138.558 12.1049 137.805 11.8633 137.295 11.6718C136.816 11.4989 136.376 11.2292 136.002 10.879C135.83 10.7223 135.694 10.5298 135.602 10.3147C135.51 10.0996 135.465 9.86694 135.47 9.63264C135.47 9.00543 135.735 8.50223 136.266 8.11903C136.798 7.7361 137.562 7.54463 138.558 7.54463C139.576 7.54463 140.381 7.79583 140.982 8.28784C141.583 8.77983 141.912 9.44463 141.977 10.275H145.763C145.677 8.43237 144.997 6.9777 143.723 5.91104C142.449 4.84437 140.773 4.31104 138.694 4.31104C137.296 4.3137 136.06 4.55023 134.987 5.02063C133.914 5.49103 133.089 6.13583 132.513 6.95503C131.949 7.74254 131.646 8.69237 131.65 9.66623C131.65 10.878 131.966 11.8556 132.597 12.599C133.204 13.3224 133.973 13.8878 134.839 14.2478C135.703 14.61 136.82 14.9806 138.191 15.3598C139.611 15.7654 140.649 16.1326 141.3 16.471C141.952 16.8094 142.28 17.3238 142.28 18.0222C142.28 18.6718 141.985 19.2094 141.398 19.6222C140.811 20.035 139.988 20.2454 138.926 20.2454C137.907 20.2454 137.06 19.9838 136.385 19.4526C135.71 18.9214 135.339 18.2702 135.273 17.4814H131.355C131.391 18.5846 131.762 19.6494 132.417 20.531ZM4.58589 23.04H0.324463L3.50535 14.184H7.76677L4.58589 23.04Z" fill="white"/>
</g>
<defs>
<clipPath id="clip0_1648_3391">
<rect width="146" height="32" fill="white"/>
</clipPath>
</defs>
</svg>
