<svg width="46" height="60" viewBox="0 0 46 60" fill="none" xmlns="http://www.w3.org/2000/svg">
<path d="M33.9463 32.3208H11.5962V37.3581H33.9463V32.3208Z" fill="#C7F03D"/>
<path d="M33.9463 41.9966H11.5962V47.0339H33.9463V41.9966Z" fill="#C7F03D"/>
<path d="M45.5422 60H26.4819V52.8202H17.6503V60H0V18.1083H11.991V10.2906L33.3652 0V18.1083H45.5422V60ZM28.1138 58.3645H43.9103V19.7438H31.7333V2.60045L13.6228 11.3209V19.7438H1.63187V58.3678H16.0184V51.1879H28.1138V58.3678V58.3645Z" fill="#022C2E"/>
<path d="M7.32034 32.3765H5.68848V37.3026H7.32034V32.3765Z" fill="#022C2E"/>
<path d="M7.32034 23.7344H5.68848V28.5329H7.32034V23.7344Z" fill="#022C2E"/>
<path d="M13.7827 23.7344H12.1509V28.5329H13.7827V23.7344Z" fill="#022C2E"/>
<path d="M20.2451 23.7344H18.6133V28.5329H20.2451V23.7344Z" fill="#022C2E"/>
<path d="M39.6314 23.7344H37.9995V28.5329H39.6314V23.7344Z" fill="#022C2E"/>
<path d="M39.6314 32.3765H37.9995V37.3026H39.6314V32.3765Z" fill="#022C2E"/>
<path d="M39.6314 42.0522H37.9995V46.9784H39.6314V42.0522Z" fill="#022C2E"/>
<path d="M39.6314 50.7593H37.9995V55.5578H39.6314V50.7593Z" fill="#022C2E"/>
<path d="M33.1695 23.7344H31.5376V28.5329H33.1695V23.7344Z" fill="#022C2E"/>
<path d="M26.7071 23.7344H25.0752V28.5329H26.7071V23.7344Z" fill="#022C2E"/>
<path d="M20.2451 15.3379H18.6133V20.1365H20.2451V15.3379Z" fill="#022C2E"/>
<path d="M26.7071 15.3379H25.0752V20.1365H26.7071V15.3379Z" fill="#022C2E"/>
<path d="M7.32034 42.0522H5.68848V46.9784H7.32034V42.0522Z" fill="#022C2E"/>
<path d="M7.32034 50.8706H5.68848V55.6692H7.32034V50.8706Z" fill="#022C2E"/>
</svg>
