<svg width="82" height="60" viewBox="0 0 82 60" fill="none" xmlns="http://www.w3.org/2000/svg">
<path d="M44.2023 60H36.7131C27.6674 60 20.3076 52.6597 20.3076 43.638C20.3076 34.6162 27.6674 27.2759 36.7131 27.2759H44.2023V60ZM36.7131 29.426C28.8574 29.426 22.4634 35.8031 22.4634 43.638C22.4634 51.4728 28.8574 57.8499 36.7131 57.8499H42.0465V29.426H36.7131Z" fill="#022C2E"/>
<path d="M48.6345 36.4868H43.1631V38.6369H48.6345V36.4868Z" fill="#022C2E"/>
<path d="M48.6345 48.6392H43.1631V50.7892H48.6345V48.6392Z" fill="#022C2E"/>
<path d="M21.3853 44.713H13.7668C6.17415 44.713 0 38.5508 0 30.9826C0 23.4143 6.17415 17.2522 13.7668 17.2522H53.3167C59.7194 17.2522 64.9277 12.0576 64.9277 5.6719V0H67.0835V5.6676C67.0835 13.2402 60.9094 19.398 53.3167 19.398H13.7668C7.36414 19.398 2.15578 24.5926 2.15578 30.9783C2.15578 37.364 7.36414 42.5586 13.7668 42.5586H21.381V44.7087L21.3853 44.713Z" fill="#022C2E"/>
<path d="M81.6867 33.9453H52.1611V40.5804H81.6867V33.9453Z" fill="#C7F03D"/>
<path d="M81.6867 46.6567H52.1611V53.2919H81.6867V46.6567Z" fill="#C7F03D"/>
</svg>
