<svg width="74" height="45" viewBox="0 0 74 45" fill="none" xmlns="http://www.w3.org/2000/svg">
<path d="M73.3135 13.1406H32.8169V15.1591H73.3135V13.1406Z" fill="#022C2E"/>
<path d="M60.3674 33.3175C57.1358 33.3175 54.5044 30.645 54.5044 27.3629C54.5044 24.0808 57.1358 21.4083 60.3674 21.4083C63.599 21.4083 66.2304 24.0808 66.2304 27.3629C66.2304 30.645 63.599 33.3175 60.3674 33.3175ZM60.3674 23.4268C58.2289 23.4268 56.4919 25.191 56.4919 27.3629C56.4919 29.5348 58.2289 31.299 60.3674 31.299C62.5059 31.299 64.243 29.5348 64.243 27.3629C64.243 25.191 62.5059 23.4268 60.3674 23.4268Z" fill="#022C2E"/>
<path d="M66.4172 44.0964H19.668C15.6295 44.0964 12.3462 40.7618 12.3462 36.6602V34.6094H14.3337V36.6602C14.3337 39.6476 16.7266 42.0779 19.668 42.0779H66.4132C69.3546 42.0779 71.7475 39.6476 71.7475 36.6602V7.43619C71.7475 4.4488 69.3546 2.01851 66.4132 2.01851H19.668C16.7266 2.01851 14.3337 4.4488 14.3337 7.43619V9.27708H12.3462V7.43619C12.3462 3.33458 15.6335 0 19.668 0H66.4132C70.4517 0 73.735 3.33458 73.735 7.43619V36.6602C73.735 40.7618 70.4517 44.0964 66.4132 44.0964H66.4172Z" fill="#022C2E"/>
<path d="M27.2203 12.9673H0V19.1964H27.2203V12.9673Z" fill="#C7F03D"/>
<path d="M27.2203 24.9004H0V31.1295H27.2203V24.9004Z" fill="#C7F03D"/>
</svg>
