<svg width="21" height="20" viewBox="0 0 21 20" fill="none" xmlns="http://www.w3.org/2000/svg">
<path d="M15.7609 3.46C15.5236 3.46 15.2916 3.53038 15.0942 3.66224C14.8969 3.79409 14.7431 3.98151 14.6522 4.20078C14.5614 4.42005 14.5377 4.66133 14.584 4.89411C14.6303 5.12689 14.7445 5.34071 14.9124 5.50853C15.0802 5.67635 15.294 5.79064 15.5268 5.83694C15.7596 5.88324 16.0008 5.85948 16.2201 5.76866C16.4394 5.67783 16.6268 5.52402 16.7587 5.32668C16.8905 5.12935 16.9609 4.89734 16.9609 4.66C16.9609 4.34174 16.8345 4.03652 16.6094 3.81147C16.3844 3.58643 16.0792 3.46 15.7609 3.46ZM20.3609 5.88C20.3415 5.0503 20.1861 4.2294 19.9009 3.45C19.6466 2.78313 19.2509 2.17928 18.7409 1.68C18.2457 1.16743 17.6405 0.774176 16.9709 0.53C16.1936 0.236161 15.3717 0.07721 14.5409 0.0599999C13.4809 -5.58794e-08 13.1409 0 10.4209 0C7.7009 0 7.3609 -5.58794e-08 6.3009 0.0599999C5.47005 0.07721 4.64824 0.236161 3.8709 0.53C3.20257 0.776649 2.59783 1.16956 2.1009 1.68C1.58832 2.17518 1.19507 2.78044 0.950898 3.45C0.657059 4.22734 0.498108 5.04915 0.480898 5.88C0.420898 6.94 0.420898 7.28 0.420898 10C0.420898 12.72 0.420898 13.06 0.480898 14.12C0.498108 14.9508 0.657059 15.7727 0.950898 16.55C1.19507 17.2196 1.58832 17.8248 2.1009 18.32C2.59783 18.8304 3.20257 19.2234 3.8709 19.47C4.64824 19.7638 5.47005 19.9228 6.3009 19.94C7.3609 20 7.7009 20 10.4209 20C13.1409 20 13.4809 20 14.5409 19.94C15.3717 19.9228 16.1936 19.7638 16.9709 19.47C17.6405 19.2258 18.2457 18.8326 18.7409 18.32C19.2531 17.8226 19.6492 17.2182 19.9009 16.55C20.1861 15.7706 20.3415 14.9497 20.3609 14.12C20.3609 13.06 20.4209 12.72 20.4209 10C20.4209 7.28 20.4209 6.94 20.3609 5.88ZM18.5609 14C18.5536 14.6348 18.4387 15.2637 18.2209 15.86C18.0612 16.2952 17.8048 16.6884 17.4709 17.01C17.1465 17.3405 16.7541 17.5964 16.3209 17.76C15.7246 17.9778 15.0957 18.0927 14.4609 18.1C13.4609 18.15 13.0909 18.16 10.4609 18.16C7.8309 18.16 7.4609 18.16 6.4609 18.1C5.80179 18.1123 5.14549 18.0109 4.5209 17.8C4.10668 17.6281 3.73225 17.3728 3.4209 17.05C3.08899 16.7287 2.83574 16.3352 2.6809 15.9C2.43675 15.2952 2.30134 14.6519 2.2809 14C2.2809 13 2.2209 12.63 2.2209 10C2.2209 7.37 2.2209 7 2.2809 6C2.28538 5.35106 2.40385 4.70795 2.6309 4.1C2.80695 3.67791 3.07716 3.30166 3.4209 3C3.72471 2.65617 4.10019 2.3831 4.5209 2.2C5.13045 1.98004 5.7729 1.86508 6.4209 1.86C7.4209 1.86 7.7909 1.8 10.4209 1.8C13.0509 1.8 13.4209 1.8 14.4209 1.86C15.0557 1.86728 15.6846 1.98225 16.2809 2.2C16.7353 2.36865 17.1432 2.64285 17.4709 3C17.7986 3.30718 18.0547 3.68273 18.2209 4.1C18.4432 4.70893 18.5582 5.35178 18.5609 6C18.6109 7 18.6209 7.37 18.6209 10C18.6209 12.63 18.6109 13 18.5609 14ZM10.4209 4.87C9.40671 4.87198 8.41586 5.17453 7.57355 5.73942C6.73125 6.30431 6.07528 7.1062 5.68853 8.04375C5.30179 8.98131 5.20162 10.0125 5.40069 11.0069C5.59976 12.0014 6.08913 12.9145 6.80697 13.631C7.52481 14.3474 8.43891 14.835 9.43376 15.0321C10.4286 15.2293 11.4596 15.1271 12.3964 14.7385C13.3332 14.35 14.1338 13.6924 14.697 12.849C15.2603 12.0056 15.5609 11.0142 15.5609 10C15.5622 9.3251 15.4301 8.65661 15.1721 8.03296C14.9142 7.40931 14.5355 6.84281 14.0578 6.36605C13.5801 5.88929 13.0128 5.51168 12.3887 5.25493C11.7645 4.99818 11.0958 4.86736 10.4209 4.87ZM10.4209 13.33C9.76229 13.33 9.11847 13.1347 8.57085 12.7688C8.02323 12.4029 7.59642 11.8828 7.34438 11.2743C7.09234 10.6659 7.02639 9.99631 7.15488 9.35035C7.28337 8.70439 7.60052 8.11104 8.06623 7.64533C8.53194 7.17963 9.12529 6.86247 9.77125 6.73398C10.4172 6.6055 11.0868 6.67144 11.6952 6.92348C12.3037 7.17552 12.8238 7.60234 13.1897 8.14995C13.5556 8.69757 13.7509 9.34139 13.7509 10C13.7509 10.4373 13.6648 10.8703 13.4974 11.2743C13.3301 11.6784 13.0848 12.0454 12.7756 12.3547C12.4663 12.6639 12.0992 12.9092 11.6952 13.0765C11.2912 13.2439 10.8582 13.33 10.4209 13.33Z" fill="#022C2E"/>
</svg>
