<svg width="18" height="17" viewBox="0 0 18 17" fill="none" xmlns="http://www.w3.org/2000/svg">
<path d="M0 1.95641C0 1.38932 0.201523 0.921484 0.604552 0.552897C1.00758 0.184293 1.53154 0 2.17639 0C2.80973 0 3.32215 0.181452 3.71368 0.544391C4.1167 0.91866 4.31823 1.40633 4.31823 2.00744C4.31823 2.55183 4.12247 3.00548 3.73095 3.36842C3.32792 3.74269 2.79821 3.92982 2.14184 3.92982H2.12457C1.49122 3.92982 0.978804 3.74269 0.587279 3.36842C0.195754 2.99415 0 2.52347 0 1.95641ZM0.224548 16.8421V5.47794H4.05913V16.8421H0.224548ZM6.1837 16.8421H10.0183V10.4965C10.0183 10.0996 10.0644 9.79336 10.1565 9.57788C10.3177 9.19227 10.5624 8.86619 10.8906 8.59968C11.2188 8.33315 11.6304 8.19989 12.1256 8.19989C13.4153 8.19989 14.0602 9.05617 14.0602 10.7687V16.8421H17.8947V10.3264C17.8947 8.64788 17.4917 7.3748 16.6856 6.50718C15.8796 5.63955 14.8144 5.20574 13.4901 5.20574C12.0047 5.20574 10.8474 5.83519 10.0183 7.0941V7.12812H10.001L10.0183 7.0941V5.47794H6.1837C6.20673 5.84086 6.21825 6.96933 6.21825 8.86337C6.21825 10.7574 6.20673 13.417 6.1837 16.8421Z" fill="#022C2E"/>
</svg>
