<svg width="66" height="55" viewBox="0 0 66 55" fill="none" xmlns="http://www.w3.org/2000/svg">
<path d="M3.35066 25.1768C1.50153 25.1768 0 23.6732 0 21.8215C0 19.9699 1.50511 18.4663 3.35066 18.4663C5.19622 18.4663 6.70133 19.9699 6.70133 21.8215C6.70133 23.6732 5.1998 25.1768 3.35066 25.1768ZM3.35066 20.2606C2.4906 20.2606 1.7918 20.9603 1.7918 21.8215C1.7918 22.6828 2.4906 23.3825 3.35066 23.3825C4.21073 23.3825 4.90953 22.6828 4.90953 21.8215C4.90953 20.9603 4.21073 20.2606 3.35066 20.2606Z" fill="#022C2E"/>
<path d="M49.0164 45.613H12.7432V9.29395H49.0128V45.613H49.0164ZM14.5385 43.8188H47.2246V11.0882H14.535V43.8188H14.5385Z" fill="#022C2E"/>
<path d="M13.3563 20.9243H6.4292V22.7186H13.3563V20.9243Z" fill="#022C2E"/>
<path d="M3.35066 36.0606C1.50153 36.0606 0 34.557 0 32.7053C0 30.8537 1.50511 29.3501 3.35066 29.3501C5.19622 29.3501 6.70133 30.8537 6.70133 32.7053C6.70133 34.557 5.1998 36.0606 3.35066 36.0606ZM3.35066 31.1443C2.4906 31.1443 1.7918 31.8441 1.7918 32.7053C1.7918 33.5666 2.4906 34.2663 3.35066 34.2663C4.21073 34.2663 4.90953 33.5666 4.90953 32.7053C4.90953 31.8441 4.21073 31.1443 3.35066 31.1443Z" fill="#022C2E"/>
<path d="M13.3563 31.8081H6.4292V33.6023H13.3563V31.8081Z" fill="#022C2E"/>
<path d="M37.7283 2.61621H35.9365V10.0372H37.7283V2.61621Z" fill="#022C2E"/>
<path d="M26.8553 5.8457H25.0635V10.0371H26.8553V5.8457Z" fill="#022C2E"/>
<path d="M37.7283 43.8906H35.9365V53.0341H37.7283V43.8906Z" fill="#022C2E"/>
<path d="M26.8553 43.8906H25.0635V49.2662H26.8553V43.8906Z" fill="#022C2E"/>
<path d="M59.8639 22.9413H47.8804V21.1471H59.1257L63.7987 16.5L65.0601 17.7703L59.8639 22.9413Z" fill="#022C2E"/>
<path d="M55.1661 6.71047C53.317 6.71047 51.8154 5.2069 51.8154 3.35524C51.8154 1.50358 53.317 0 55.1661 0C57.0152 0 58.5168 1.50358 58.5168 3.35524C58.5168 5.2069 57.0152 6.71047 55.1661 6.71047ZM55.1661 1.79424C54.306 1.79424 53.6072 2.494 53.6072 3.35524C53.6072 4.21647 54.306 4.91623 55.1661 4.91623C56.0262 4.91623 56.725 4.21647 56.725 3.35524C56.725 2.494 56.0262 1.79424 55.1661 1.79424Z" fill="#022C2E"/>
<path d="M52.6935 4.62614L47.7554 9.53662L49.0179 10.8098L53.9561 5.89928L52.6935 4.62614Z" fill="#022C2E"/>
<path d="M55.1661 54.9395C53.317 54.9395 51.8154 53.4359 51.8154 51.5842C51.8154 49.7326 53.317 48.229 55.1661 48.229C57.0152 48.229 58.5168 49.7326 58.5168 51.5842C58.5168 53.4359 57.0152 54.9395 55.1661 54.9395ZM55.1661 50.0232C54.306 50.0232 53.6072 50.723 53.6072 51.5842C53.6072 52.4455 54.306 53.1452 55.1661 53.1452C56.0262 53.1452 56.725 52.4455 56.725 51.5842C56.725 50.723 56.0262 50.0232 55.1661 50.0232Z" fill="#022C2E"/>
<path d="M49.0172 44.1328L47.7544 45.4058L52.6917 50.3171L53.9545 49.0442L49.0172 44.1328Z" fill="#022C2E"/>
<path d="M63.7986 37.9516L59.1256 33.3045H47.9985V31.5103H59.8638L65.0601 36.6777L63.7986 37.9516Z" fill="#022C2E"/>
<path d="M43.1323 19.3779H18.5918V24.915H43.1323V19.3779Z" fill="#C7F03D"/>
<path d="M43.1323 29.9888H18.5918V35.5258H43.1323V29.9888Z" fill="#C7F03D"/>
</svg>
