<svg width="14" height="12" viewBox="0 0 14 12" fill="none" xmlns="http://www.w3.org/2000/svg">
<path d="M14 1.43768C13.4738 1.67803 12.9174 1.83691 12.348 1.90939C12.9487 1.53152 13.3989 0.937067 13.615 0.236297C13.0505 0.590125 12.4325 0.839419 11.788 0.973342C11.3572 0.481417 10.7835 0.153966 10.1569 0.0423445C9.53026 -0.0692772 8.88618 0.0412441 8.32565 0.356575C7.76513 0.671906 7.31985 1.17421 7.05967 1.78471C6.79948 2.39521 6.7391 3.07937 6.888 3.72989C5.7466 3.6691 4.63011 3.35618 3.61106 2.81143C2.59201 2.26669 1.69319 1.50231 0.973 0.567967C0.720396 1.03243 0.587663 1.55843 0.588 2.09365C0.587104 2.5907 0.702952 3.08027 0.925229 3.51878C1.14751 3.95728 1.46931 4.33111 1.862 4.60698C1.40558 4.5939 0.95892 4.46495 0.56 4.23108V4.26793C0.563421 4.96436 0.795196 5.63817 1.21612 6.17538C1.63704 6.71259 2.22128 7.08024 2.87 7.21612C2.62028 7.29613 2.36101 7.33832 2.1 7.34141C1.91932 7.33919 1.7391 7.32194 1.561 7.28982C1.74574 7.8889 2.10324 8.41245 2.58375 8.78761C3.06427 9.16278 3.6439 9.3709 4.242 9.38303C3.23204 10.2198 1.98512 10.6764 0.7 10.6802C0.466015 10.681 0.232215 10.6663 0 10.636C1.3121 11.528 2.84117 12.0015 4.403 11.9995C5.48078 12.0113 6.54999 11.7969 7.54818 11.3687C8.54637 10.9405 9.45352 10.3072 10.2166 9.50574C10.9798 8.70429 11.5836 7.75076 11.9928 6.70085C12.402 5.65094 12.6084 4.5257 12.6 3.39085C12.6 3.26555 12.6 3.13288 12.6 3.00022C13.1493 2.56891 13.623 2.04016 14 1.43768Z" fill="#022C2E"/>
</svg>
