<svg width="21" height="16" viewBox="0 0 21 16" fill="none" xmlns="http://www.w3.org/2000/svg">
<path d="M20.4209 1.89169C19.6692 2.20793 18.8743 2.41699 18.0609 2.51235C18.9191 2.01516 19.5622 1.23298 19.8709 0.310917C19.0645 0.77648 18.1817 1.1045 17.2609 1.28071C16.6454 0.633444 15.8259 0.202587 14.9307 0.0557165C14.0355 -0.0911543 13.1154 0.0542686 12.3147 0.469178C11.5139 0.884086 10.8778 1.54501 10.5061 2.3483C10.1344 3.15159 10.0482 4.0518 10.2609 4.90775C8.63033 4.82777 7.03534 4.41602 5.57955 3.69925C4.12377 2.98248 2.83974 1.97673 1.8109 0.747325C1.45004 1.35846 1.26042 2.05056 1.2609 2.7548C1.25962 3.40882 1.42512 4.05299 1.74265 4.62997C2.06019 5.20695 2.51992 5.69882 3.0809 6.06181C2.42888 6.04461 1.79078 5.87493 1.2209 5.56721V5.6157C1.22579 6.53206 1.55689 7.41864 2.15821 8.1255C2.75953 8.83236 3.59415 9.3161 4.5209 9.49489C4.16415 9.60018 3.79377 9.65569 3.4209 9.65975C3.16279 9.65683 2.90532 9.63413 2.6509 9.59187C2.91481 10.3801 3.42552 11.069 4.11197 11.5626C4.79843 12.0563 5.62647 12.3301 6.4809 12.3461C5.0381 13.4471 3.25678 14.0479 1.4209 14.0529C1.08663 14.054 0.752634 14.0346 0.420898 13.9947C2.29533 15.1684 4.47971 15.7915 6.7109 15.7889C8.25059 15.8044 9.77803 15.5222 11.204 14.9588C12.63 14.3954 13.9259 13.5621 15.0161 12.5076C16.1063 11.453 16.9689 10.1984 17.5535 8.81691C18.1381 7.43545 18.4329 5.95487 18.4209 4.46165C18.4209 4.29678 18.4209 4.12222 18.4209 3.94765C19.2056 3.38014 19.8824 2.68442 20.4209 1.89169Z" fill="#022C2E"/>
</svg>
